<?xml version="1.0" encoding="iso-8859-1"?>
<!-- Generator: Adobe Illustrator 23.0.1, SVG Export Plug-In . SVG Version: 6.00 Build 0)  -->
<svg version="1.1" id="Livello_1" xmlns="http://www.w3.org/2000/svg" xmlns:xlink="http://www.w3.org/1999/xlink" x="0px" y="0px"
	 viewBox="0 0 182.181 293.309" style="enable-background:new 0 0 182.181 293.309;" xml:space="preserve">
<g>
	<g>
		<g>
			<defs>
				<path id="SVGID_1_" d="M98.592,153.729v-14.231H83.588v14.231c0,28.257-17.76,51.249-39.595,51.249h94.193
					C116.352,204.977,98.592,181.986,98.592,153.729z"/>
			</defs>
			<use xlink:href="#SVGID_1_"  style="overflow:visible;fill:#F4CD0C;"/>
			<clipPath id="SVGID_2_">
				<use xlink:href="#SVGID_1_"  style="overflow:visible;"/>
			</clipPath>
			<rect x="74.698" y="132.717" style="clip-path:url(#SVGID_2_);fill:#E29418;" width="32.783" height="28.471"/>
		</g>
		<rect x="43.994" y="204.977" style="fill:#E29418;" width="94.193" height="9.618"/>
		<path style="fill:#F4CD0C;" d="M24.736,6.493c-0.011,1.109-0.039,2.21-0.039,3.326c0,78.808,29.725,142.695,66.393,142.695
			c36.668,0,66.393-63.887,66.393-142.695c0-1.115-0.028-2.216-0.039-3.326H24.736z"/>
		<path style="fill:#F4CD0C;" d="M170.778,36.901v14.891c0,32.309-26.286,58.595-58.595,58.595H69.998
			c-32.309,0-58.595-26.286-58.595-58.595V36.901H170.778 M182.181,25.498H0v26.294c0,38.659,31.339,69.998,69.998,69.998h42.185
			c38.659,0,69.998-31.339,69.998-69.998V25.498L182.181,25.498z"/>
		<g>
			<defs>
				<path id="SVGID_3_" d="M30.51,17.649c1.867,70.785,28.846,129.164,60.58,129.164s58.717-58.379,60.584-129.164H30.51z"/>
			</defs>
			<clipPath id="SVGID_4_">
				<use xlink:href="#SVGID_3_"  style="overflow:visible;"/>
			</clipPath>
			<g style="clip-path:url(#SVGID_4_);">
				<path style="fill:#FAEC0F;" d="M50.764,9.819c0-1.115,0.017-2.216,0.024-3.326H24.736c-0.011,1.109-0.039,2.21-0.039,3.326
					c0,78.808,29.725,142.695,66.393,142.695C68.819,152.514,50.764,88.627,50.764,9.819z"/>
			</g>
		</g>
		<rect x="19.169" style="fill:#F4CD0C;" width="143.881" height="12.987"/>
		<rect x="26.691" style="fill:#FAEC0F;" width="20.747" height="12.987"/>
		<path style="fill:#E29418;" d="M93.574,44.625l4.798,14.764l15.524,0.001c2.53,0,3.581,3.237,1.535,4.724l-12.559,9.125
			l4.797,14.765c0.782,2.406-1.972,4.407-4.019,2.92l-12.56-9.124l-12.56,9.124c-2.047,1.487-4.8-0.514-4.019-2.92l4.797-14.765
			l-12.559-9.125c-2.046-1.487-0.995-4.724,1.535-4.724l15.524-0.001l4.798-14.764C89.388,42.219,92.792,42.219,93.574,44.625z"/>
	</g>
	<g>
		<polygon style="fill:#444444;" points="155.448,227.899 26.732,227.899 38.135,214.596 144.045,214.596 		"/>
		<rect x="19.13" y="227.899" style="fill:#333333;" width="143.92" height="53.532"/>
		<rect x="12.637" y="281.431" style="fill:#444444;" width="156.906" height="11.878"/>
	</g>
	<g>
		<rect x="30.533" y="239.302" style="fill:#F4CD0C;" width="121.114" height="30.726"/>
		<circle style="fill:#E29418;" cx="34.93" cy="243.699" r="2.112"/>
		<path style="fill:#E29418;" d="M37.043,265.63c0,1.167-0.946,2.112-2.112,2.112s-2.112-0.946-2.112-2.112
			c0-1.167,0.946-2.112,2.112-2.112S37.043,264.464,37.043,265.63z"/>
		<circle style="fill:#E29418;" cx="147.25" cy="243.699" r="2.112"/>
		<path style="fill:#E29418;" d="M149.362,265.63c0,1.167-0.946,2.112-2.112,2.112s-2.112-0.946-2.112-2.112
			c0-1.167,0.946-2.112,2.112-2.112S149.362,264.464,149.362,265.63z"/>
	</g>
</g>
</svg>
