<?xml version="1.0" encoding="iso-8859-1"?>
<!-- Generator: Adobe Illustrator 23.0.2, SVG Export Plug-In . SVG Version: 6.00 Build 0)  -->
<svg version="1.1" id="&#x56FE;&#x5C42;_1" xmlns="http://www.w3.org/2000/svg" xmlns:xlink="http://www.w3.org/1999/xlink" x="0px"
	 y="0px" viewBox="0 0 192 192" style="enable-background:new 0 0 192 192;" xml:space="preserve">
<g>
	<defs>
		<path id="SVGID_1_" d="M56.405,0h79.189c19.613,0,26.726,2.042,33.896,5.877c7.17,3.835,12.798,9.462,16.632,16.632
			C189.958,29.68,192,36.792,192,56.406v79.189c0,19.613-2.042,26.726-5.877,33.896c-3.835,7.17-9.462,12.798-16.632,16.632
			c-7.17,3.835-14.283,5.877-33.896,5.877H56.405c-19.613,0-26.726-2.042-33.896-5.877c-7.17-3.835-12.798-9.462-16.632-16.632
			C2.042,162.32,0,155.208,0,135.595V56.406C0,36.792,2.042,29.68,5.877,22.509S15.339,9.712,22.509,5.877
			C29.68,2.042,36.792,0,56.405,0z"/>
	</defs>
	<clipPath id="SVGID_2_">
		<use xlink:href="#SVGID_1_"  style="overflow:visible;"/>
	</clipPath>
	<rect x="-5" y="-5" style="clip-path:url(#SVGID_2_);fill:#7000E2;" width="202" height="202"/>
</g>
<g>
	<defs>
		<path id="SVGID_3_" d="M168.375,96.622c0-40.315-32.403-72.997-72.375-72.997S23.625,56.307,23.625,96.622
			S56.028,168.375,96,168.375c7.288,0,16.738-2.233,28.352-6.698c5.962-2.292,12.462-2.801,18.708-1.463l8.317,1.781
			c2.93,0.628,5.814-1.239,6.442-4.169c0.185-0.862,0.156-1.756-0.082-2.605l-1.648-5.862c-1.664-5.919-1.05-12.246,1.719-17.736
			C164.853,117.662,168.375,105.994,168.375,96.622z"/>
	</defs>
	<clipPath id="SVGID_4_">
		<use xlink:href="#SVGID_3_"  style="overflow:visible;"/>
	</clipPath>
	<rect x="18.625" y="18.625" style="clip-path:url(#SVGID_4_);fill:#FFFFFF;" width="154.75" height="154.75"/>
</g>
<g>
	<defs>
		<path id="SVGID_5_" d="M73.321,87.188c-4.225,0-6.946,3.498-6.946,9.018c0,5.502,2.703,8.982,6.946,8.982
			c4.225,0,6.929-3.48,6.929-8.982C80.25,90.686,77.547,87.188,73.321,87.188z M73.312,79.125c9.778,0,15.938,6.56,15.938,17.074
			c0,10.491-6.16,17.051-15.938,17.051c-9.801,0-15.938-6.56-15.938-17.051C57.375,85.685,63.512,79.125,73.312,79.125z"/>
	</defs>
	<clipPath id="SVGID_6_">
		<use xlink:href="#SVGID_5_"  style="overflow:visible;"/>
	</clipPath>
	<rect x="52.375" y="74.125" style="clip-path:url(#SVGID_6_);fill:#7000E2;" width="41.875" height="44.125"/>
</g>
<g>
	<defs>
		<path id="SVGID_7_" d="M126,63.116l1.193-1.293c1.686-1.826,4.533-1.94,6.359-0.254c1.826,1.686,1.94,4.533,0.254,6.359
			l-4.5,4.875c-1.782,1.93-4.831,1.93-6.613,0l-4.5-4.875c-1.686-1.826-1.572-4.673,0.254-6.359s4.673-1.572,6.359,0.254L126,63.116
			z"/>
	</defs>
	<clipPath id="SVGID_8_">
		<use xlink:href="#SVGID_7_"  style="overflow:visible;"/>
	</clipPath>
	<rect x="112" y="55.375" style="clip-path:url(#SVGID_8_);fill:#FF448C;" width="28" height="23.875"/>
</g>
<g>
	<defs>
		<path id="SVGID_9_" d="M30,83.675c0-2.485,2.015-4.5,4.5-4.5s4.5,2.015,4.5,4.5v12.537c0,4.434,3.621,8.037,8.1,8.037h4.05
			c2.485,0,4.5,2.015,4.5,4.5s-2.015,4.5-4.5,4.5H47.1c-9.439,0-17.1-7.623-17.1-17.037V83.675z"/>
	</defs>
	<clipPath id="SVGID_10_">
		<use xlink:href="#SVGID_9_"  style="overflow:visible;"/>
	</clipPath>
	<rect x="25" y="74.175" style="clip-path:url(#SVGID_10_);fill:#7000E2;" width="35.65" height="44.075"/>
</g>
<g>
	<defs>
		<path id="SVGID_11_" d="M127.8,83.675c0-2.485,2.015-4.5,4.5-4.5c2.485,0,4.5,2.015,4.5,4.5v12.537c0,4.434,3.621,8.037,8.1,8.037
			s8.1-3.603,8.1-8.037V83.675c0-2.485,2.015-4.5,4.5-4.5s4.5,2.015,4.5,4.5v12.537c0,9.414-7.661,17.037-17.1,17.037
			c-9.439,0-17.1-7.623-17.1-17.037V83.675z"/>
	</defs>
	<clipPath id="SVGID_12_">
		<use xlink:href="#SVGID_11_"  style="overflow:visible;"/>
	</clipPath>
	<rect x="122.8" y="74.175" style="clip-path:url(#SVGID_12_);fill:#7000E2;" width="44.2" height="44.075"/>
</g>
<g>
	<defs>
		<path id="SVGID_13_" d="M107.775,98.728l8.579-17.073c1.116-2.221,3.821-3.116,6.041-2c2.221,1.116,3.116,3.821,2,6.041
			l-12.6,25.075c-1.661,3.306-6.381,3.306-8.042,0l-12.6-25.075c-1.116-2.221-0.22-4.925,2-6.041c2.221-1.116,4.925-0.22,6.041,2
			L107.775,98.728z"/>
	</defs>
	<clipPath id="SVGID_14_">
		<use xlink:href="#SVGID_13_"  style="overflow:visible;"/>
	</clipPath>
	<rect x="85.674" y="74.174" style="clip-path:url(#SVGID_14_);fill:#7000E2;" width="44.202" height="44.076"/>
</g>
</svg>
