<svg xmlns="http://www.w3.org/2000/svg" xmlns:xlink="http://www.w3.org/1999/xlink" version="1.1" id="图层_1" x="0px" y="0px" viewBox="0 0 150.735 44.099" style="enable-background:new 0 0 150.735 44.099;" xml:space="preserve">
<g id="ic" style="display:none;">
	<path style="display:inline;fill-rule:evenodd;clip-rule:evenodd;fill:#7000E2;" d="M-197.733-76.901h102.136   c21.936,0,39.719,17.783,39.719,39.719V64.954c0,21.936-17.783,39.719-39.719,39.719h-102.136   c-21.936,0-39.719-17.783-39.719-39.719V-37.182C-237.452-59.118-219.669-76.901-197.733-76.901L-197.733-76.901z"/>
  <path style="display:inline;fill-rule:evenodd;clip-rule:evenodd;fill:#FFFFFF;" d="M-78.22,14.475   c0-38.126-30.644-69.034-68.445-69.034s-68.445,30.907-68.445,69.034s30.644,67.856,68.445,67.856   c6.988,0,16.078-2.171,27.271-6.512l0,0c5.307-2.058,11.099-2.52,16.665-1.328l8.953,1.917c2.598,0.556,5.155-1.099,5.712-3.697   c0.164-0.764,0.139-1.557-0.073-2.309l-1.855-6.6c-1.481-5.27-0.926-10.903,1.554-15.783C-81.626,34.619-78.22,23.437-78.22,14.475   L-78.22,14.475z"/>
  <path style="display:inline;fill:#7000E2;" d="M-201.634,2.231c0-2.35,1.905-4.256,4.256-4.256c2.35,0,4.256,1.905,4.256,4.256   v11.857c0,4.193,3.425,7.601,7.66,7.601h3.83c2.35,0,4.256,1.905,4.256,4.256c0,2.35-1.905,4.256-4.256,4.256h-3.83   c-8.926,0-16.171-7.209-16.171-16.112V2.231L-201.634,2.231z M-124.039,2.231c0-2.35,1.905-4.256,4.256-4.256   s4.256,1.905,4.256,4.256v11.857c0,4.193,3.425,7.601,7.66,7.601c4.235,0,7.66-3.408,7.66-7.601V2.231   c0-2.35,1.905-4.256,4.256-4.256s4.256,1.905,4.256,4.256v11.857c0,8.903-7.245,16.112-16.171,16.112   c-8.926,0-16.171-7.209-16.171-16.112V2.231L-124.039,2.231z M-142.977,16.466l8.113-16.146c1.055-2.1,3.613-2.947,5.713-1.892   c2.1,1.055,2.947,3.613,1.892,5.713l-11.916,23.713c-1.571,3.126-6.034,3.126-7.605,0l-11.916-23.713   c-1.055-2.1-0.208-4.658,1.892-5.713c2.1-1.055,4.658-0.208,5.713,1.892L-142.977,16.466L-142.977,16.466z M-174.61,17.475   c0-2.35,1.905-4.256,4.256-4.256c2.35,0,4.256,1.905,4.256,4.256v8.469c0,2.35-1.905,4.256-4.256,4.256   c-2.35,0-4.256-1.905-4.256-4.256V17.475L-174.61,17.475z"/>
  <path style="display:inline;fill:#FF448C;" d="M-170.355,0.519l1.129-1.223c1.594-1.727,4.287-1.835,6.014-0.241   c1.727,1.594,1.835,4.287,0.241,6.014l-4.256,4.61c-1.685,1.826-4.569,1.826-6.254,0l-4.256-4.61   c-1.594-1.727-1.487-4.419,0.241-6.014s4.419-1.486,6.014,0.241L-170.355,0.519L-170.355,0.519z"/>
</g>
  <g id="mask">
	<path style="fill:#7000E2;" d="M0,5.88c0-3.212,2.612-5.815,5.835-5.815c3.223,0,5.835,2.604,5.835,5.815v16.202   c0,5.73,4.696,10.386,10.503,10.386h5.251c3.223,0,5.835,2.604,5.835,5.815c0,3.212-2.612,5.815-5.835,5.815h-5.251   C9.933,44.099,0,34.248,0,22.082V5.88L0,5.88z M106.39,5.88c0-3.212,2.612-5.815,5.835-5.815s5.835,2.604,5.835,5.815v16.202   c0,5.73,4.696,10.386,10.503,10.386s10.503-4.657,10.503-10.386V5.88c0-3.212,2.612-5.815,5.835-5.815   c3.223,0,5.835,2.604,5.835,5.815v16.202c0,12.166-9.934,22.017-22.173,22.017c-12.239,0-22.173-9.851-22.173-22.017V5.88   L106.39,5.88z M80.424,25.332L91.548,3.269c1.447-2.87,4.954-4.027,7.834-2.585c2.879,1.442,4.041,4.937,2.594,7.807L85.638,40.895   c-2.154,4.272-8.273,4.272-10.427,0L58.873,8.491c-1.447-2.87-0.286-6.365,2.594-7.807c2.88-1.442,6.387-0.285,7.834,2.585   L80.424,25.332L80.424,25.332z M37.052,26.711c0-3.212,2.612-5.815,5.835-5.815c3.223,0,5.835,2.604,5.835,5.815v11.573   c0,3.212-2.612,5.815-5.835,5.815c-3.223,0-5.835-2.604-5.835-5.815V26.711L37.052,26.711z"/>
    <path style="fill:#FD4189;" d="M42.886,3.542l1.547-1.671c2.186-2.36,5.877-2.507,8.245-0.329s2.516,5.857,0.33,8.217l-5.835,6.3   c-2.31,2.495-6.265,2.495-8.575,0l-5.835-6.3c-2.186-2.36-2.038-6.039,0.33-8.217c2.368-2.178,6.059-2.031,8.245,0.329   L42.886,3.542L42.886,3.542z"/>
</g>
</svg>
