<svg xmlns="http://www.w3.org/2000/svg" xmlns:xlink="http://www.w3.org/1999/xlink" version="1.1" id="图层_1" x="0px" y="0px" viewBox="0 0 181 182" style="enable-background:new 0 0 181 182;" xml:space="preserve">
<g id="ic">
	<path style="fill-rule:evenodd;clip-rule:evenodd;fill:#7000E2;" d="M39.599,0h102.136c21.936,0,39.719,17.783,39.719,39.719   v102.136c0,21.936-17.783,39.719-39.719,39.719H39.599c-21.936,0-39.719-17.783-39.719-39.719V39.719   C-0.12,17.783,17.663,0,39.599,0L39.599,0z"/>
  <path style="fill-rule:evenodd;clip-rule:evenodd;fill:#FFFFFF;" d="M159.112,91.376c0-38.126-30.644-69.034-68.445-69.034   S22.222,53.25,22.222,91.376s30.644,67.856,68.445,67.856c6.988,0,16.078-2.171,27.271-6.512l0,0   c5.307-2.058,11.099-2.52,16.665-1.328l8.953,1.917c2.598,0.556,5.155-1.099,5.712-3.697c0.164-0.764,0.139-1.557-0.073-2.309   l-1.855-6.6c-1.481-5.27-0.926-10.903,1.554-15.783C155.706,111.52,159.112,100.338,159.112,91.376L159.112,91.376z"/>
  <path style="fill:#7000E2;" d="M35.698,79.132c0-2.35,1.905-4.256,4.256-4.256s4.256,1.905,4.256,4.256v11.857   c0,4.193,3.425,7.601,7.66,7.601h3.83c2.35,0,4.256,1.905,4.256,4.256c0,2.35-1.905,4.256-4.256,4.256h-3.83   c-8.926,0-16.171-7.209-16.171-16.112V79.132L35.698,79.132z M113.293,79.132c0-2.35,1.905-4.256,4.256-4.256   s4.256,1.905,4.256,4.256v11.857c0,4.193,3.425,7.601,7.66,7.601c4.235,0,7.66-3.408,7.66-7.601V79.132   c0-2.35,1.905-4.256,4.256-4.256c2.35,0,4.256,1.905,4.256,4.256v11.857c0,8.903-7.245,16.112-16.171,16.112   c-8.926,0-16.171-7.209-16.171-16.112V79.132L113.293,79.132z M94.355,93.367l8.113-16.146c1.055-2.1,3.613-2.947,5.713-1.892   c2.1,1.055,2.947,3.613,1.892,5.713l-11.916,23.713c-1.571,3.126-6.034,3.126-7.605,0L78.637,81.043   c-1.055-2.1-0.208-4.658,1.892-5.713c2.1-1.055,4.658-0.208,5.713,1.892L94.355,93.367L94.355,93.367z M62.722,94.376   c0-2.35,1.905-4.256,4.256-4.256s4.256,1.905,4.256,4.256v8.469c0,2.35-1.905,4.256-4.256,4.256s-4.256-1.905-4.256-4.256V94.376   L62.722,94.376z"/>
  <path style="fill:#FF448C;" d="M66.977,77.42l1.129-1.223c1.594-1.727,4.287-1.835,6.014-0.241   c1.727,1.594,1.835,4.287,0.241,6.014l-4.256,4.61c-1.685,1.826-4.569,1.826-6.254,0l-4.256-4.61   c-1.594-1.727-1.487-4.419,0.241-6.014c1.727-1.594,4.419-1.486,6.014,0.241L66.977,77.42L66.977,77.42z"/>
</g>
  <g id="mask" style="display:none;">
	<path style="display:inline;fill:#7000E2;" d="M237.332,82.781c0-3.212,2.612-5.815,5.835-5.815c3.223,0,5.835,2.604,5.835,5.815   v16.202c0,5.73,4.696,10.386,10.503,10.386h5.251c3.223,0,5.835,2.604,5.835,5.815c0,3.212-2.612,5.815-5.835,5.815h-5.251   c-12.239,0-22.173-9.851-22.173-22.017V82.781L237.332,82.781z M343.722,82.781c0-3.212,2.612-5.815,5.835-5.815   s5.835,2.604,5.835,5.815v16.202c0,5.73,4.696,10.386,10.503,10.386c5.807,0,10.503-4.657,10.503-10.386V82.781   c0-3.212,2.612-5.815,5.835-5.815s5.835,2.604,5.835,5.815v16.202c0,12.166-9.934,22.017-22.173,22.017   c-12.239,0-22.173-9.851-22.173-22.017V82.781L343.722,82.781z M317.756,102.233L328.88,80.17c1.447-2.87,4.954-4.027,7.834-2.585   c2.879,1.442,4.041,4.937,2.594,7.807l-16.338,32.403c-2.154,4.272-8.273,4.272-10.427,0l-16.338-32.403   c-1.447-2.87-0.286-6.365,2.594-7.807c2.88-1.442,6.387-0.285,7.834,2.585L317.756,102.233L317.756,102.233z M274.384,103.612   c0-3.212,2.612-5.815,5.835-5.815c3.223,0,5.835,2.604,5.835,5.815v11.573c0,3.212-2.612,5.815-5.835,5.815   c-3.223,0-5.835-2.604-5.835-5.815V103.612L274.384,103.612z"/>
    <path style="display:inline;fill:#FD4189;" d="M280.218,80.443l1.547-1.671c2.186-2.36,5.877-2.507,8.245-0.329   c2.368,2.178,2.516,5.857,0.33,8.217l-5.835,6.3c-2.31,2.495-6.265,2.495-8.575,0l-5.835-6.3c-2.186-2.36-2.038-6.039,0.33-8.217   c2.368-2.178,6.059-2.031,8.245,0.329L280.218,80.443L280.218,80.443z"/>
</g>
</svg>
