<?xml version="1.0" encoding="iso-8859-1"?>
<!-- Generator: Adobe Illustrator 23.0.1, SVG Export Plug-In . SVG Version: 6.00 Build 0)  -->
<svg version="1.1" id="&#x56FE;&#x5C42;_1" xmlns="http://www.w3.org/2000/svg" xmlns:xlink="http://www.w3.org/1999/xlink" x="0px"
	 y="0px" viewBox="0 0 636.103 162.563" style="enable-background:new 0 0 636.103 162.563;" xml:space="preserve">
<g>
	
		<linearGradient id="SVGID_1_" gradientUnits="userSpaceOnUse" x1="54.4368" y1="136.459" x2="54.4368" y2="-13.098" gradientTransform="matrix(1 0 0 -1 0 149.464)">
		<stop  offset="0" style="stop-color:#FFD01E"/>
		<stop  offset="1" style="stop-color:#FFAD31"/>
	</linearGradient>
	<path style="fill:url(#SVGID_1_);" d="M80.447,13.005H2.417c0,14.365,11.645,26.01,26.01,26.01h13.005v123.547l0,0
		c14.365,0,26.01-11.645,26.01-26.01V39.015h39.015l0,0C106.457,24.65,94.812,13.005,80.447,13.005z"/>
	
		<linearGradient id="SVGID_2_" gradientUnits="userSpaceOnUse" x1="478.7248" y1="149.464" x2="478.7248" y2="-13.098" gradientTransform="matrix(1 0 0 -1 0 149.464)">
		<stop  offset="0" style="stop-color:#FFD01E"/>
		<stop  offset="1" style="stop-color:#FFAD31"/>
	</linearGradient>
	<path style="fill:url(#SVGID_2_);" d="M465.72,0L465.72,0v136.552c0,14.365,11.645,26.01,26.01,26.01V26.01
		C491.73,11.645,480.085,0,465.72,0z"/>
	
		<linearGradient id="SVGID_3_" gradientUnits="userSpaceOnUse" x1="426.7048" y1="95.818" x2="426.7048" y2="-13.099" gradientTransform="matrix(1 0 0 -1 0 149.464)">
		<stop  offset="0" style="stop-color:#FFD01E"/>
		<stop  offset="1" style="stop-color:#FFAD31"/>
	</linearGradient>
	<path style="fill:url(#SVGID_3_);" d="M413.7,53.646L413.7,53.646v82.907c0,14.365,11.645,26.01,26.01,26.01V79.656
		C439.71,65.291,428.065,53.646,413.7,53.646z"/>
	
		<linearGradient id="SVGID_4_" gradientUnits="userSpaceOnUse" x1="426.7048" y1="136.459" x2="426.7048" y2="107.197" gradientTransform="matrix(1 0 0 -1 0 149.464)">
		<stop  offset="0" style="stop-color:#FFD01E"/>
		<stop  offset="1" style="stop-color:#FFAD31"/>
	</linearGradient>
	<circle style="fill:url(#SVGID_4_);" cx="426.705" cy="27.636" r="14.631"/>
	
		<linearGradient id="SVGID_5_" gradientUnits="userSpaceOnUse" x1="176.3598" y1="100.696" x2="176.3598" y2="-13.098" gradientTransform="matrix(1 0 0 -1 0 149.464)">
		<stop  offset="0" style="stop-color:#FFD01E"/>
		<stop  offset="1" style="stop-color:#FFAD31"/>
	</linearGradient>
	<path style="fill:url(#SVGID_5_);" d="M199.117,48.769L199.117,48.769v65.782c0,12.151-9.85,22.001-22.001,22.001h-1.514
		c-12.151,0-22.001-9.851-22.001-22.001V74.703c0-14.323-11.611-25.935-25.935-25.935l0,0c-0.047,0.838-0.075,1.681-0.075,2.531
		v66.466c0,24.741,20.056,44.797,44.797,44.797h7.944c24.741,0,44.797-20.056,44.797-44.797c0,0-0.01-23.477-0.027-43.043
		C225.087,60.381,213.458,48.769,199.117,48.769z"/>
	
		<linearGradient id="SVGID_6_" gradientUnits="userSpaceOnUse" x1="573.8235" y1="105.5725" x2="573.8235" y2="-13.099" gradientTransform="matrix(1 0 0 -1 0 149.464)">
		<stop  offset="0" style="stop-color:#FFD01E"/>
		<stop  offset="1" style="stop-color:#FFAD31"/>
	</linearGradient>
	<path style="fill:url(#SVGID_6_);" d="M608.844,113.794h23.358c0.617-3.431,0.957-6.958,0.957-10.567
		c0-34.162-28.87-61.582-63.544-59.19c-29.259,2.018-52.963,25.723-54.981,54.982c-2.391,34.673,25.028,63.544,59.19,63.544
		c22.331,0,41.773-12.343,51.898-30.573l-0.287-0.166c-9.739-5.639-21.714-4.77-30.993,1.598
		c-5.865,4.025-12.963,6.382-20.618,6.382c-16.526,0-30.486-10.963-35.02-26.01h66.72H608.844z M573.824,66.651
		c15.924,0,29.465,10.18,34.487,24.384h-68.974C544.359,76.831,557.899,66.651,573.824,66.651z"/>
	
		<linearGradient id="SVGID_7_" gradientUnits="userSpaceOnUse" x1="317.7888" y1="100.6951" x2="317.7888" y2="-13.099" gradientTransform="matrix(1 0 0 -1 0 149.464)">
		<stop  offset="0" style="stop-color:#FFD01E"/>
		<stop  offset="1" style="stop-color:#FFAD31"/>
	</linearGradient>
	<path style="fill:url(#SVGID_7_);" d="M348.298,48.787c-11.853-0.343-22.638,4.206-30.51,11.765
		c-7.872-7.559-18.657-12.108-30.51-11.765c-23.006,0.664-41.017,20.162-41.017,43.177v44.589c0,14.365,11.645,26.01,26.01,26.01
		V93.218c0-8.658,6.534-16.219,15.174-16.779c9.468-0.613,17.339,6.885,17.339,16.221v43.892c0,14.365,11.645,26.01,26.01,26.01
		V93.217c0-8.658,6.534-16.219,15.174-16.779c9.468-0.613,17.339,6.885,17.339,16.221v43.892c0,14.365,11.645,26.01,26.01,26.01
		V91.962C389.315,68.949,371.304,49.451,348.298,48.787z"/>
</g>
</svg>
